# Blender v2.92.0 OBJ File: 'sign.blend'
# www.blender.org
mtllib sign.mtl
o Cube
v 0.349600 4.131846 -4.244510
v 0.349600 -4.131846 -4.244510
v 0.349600 4.131846 4.244510
v 0.349600 -4.131846 4.244510
v -0.349600 4.131846 -4.244510
v -0.349600 -4.131846 -4.244510
v -0.349600 4.131846 4.244510
v -0.349600 -4.131846 4.244510
vt 1.026128 0.000303
vt 1.039128 -1.038882
vt 0.005633 -1.044401
vt -0.007368 -0.005215
vt -0.020368 1.033970
vt -1.040866 -0.010733
vt -1.053865 1.028452
vt 3.080120 1.050524
vt 3.093121 0.011339
vt 2.059624 0.005821
vt 2.046624 1.045006
vt 1.000127 2.078674
vt 1.013127 1.039488
vt -0.033370 2.073155
vn 0.0000 1.0000 0.0000
vn 0.0000 0.0000 1.0000
vn -1.0000 0.0000 0.0000
vn 0.0000 -1.0000 0.0000
vn 1.0000 0.0000 0.0000
vn 0.0000 0.0000 -1.0000
usemtl Material
s off
f 1/1/1 5/2/1 7/3/1 3/4/1
f 4/5/2 3/4/2 7/6/2 8/7/2
f 8/8/3 7/9/3 5/10/3 6/11/3
f 6/12/4 2/13/4 4/5/4 8/14/4
f 2/13/5 1/1/5 3/4/5 4/5/5
f 6/11/6 5/10/6 1/1/6 2/13/6
