# Blender v2.81 (sub 16) OBJ File: ''
# www.blender.org
mtllib Spoon.mtl
o Cube
v 0.609067 1.000000 -0.609067
v 1.000000 -1.000000 -1.000000
v 0.609067 1.000000 0.609067
v 1.000000 -1.000000 1.000000
v -0.609067 1.000000 -0.609067
v -1.000000 -1.000000 -1.000000
v -0.609067 1.000000 0.609067
v -1.000000 -1.000000 1.000000
v 1.000000 1.000000 1.000000
v -1.000000 1.000000 1.000000
v 1.000000 1.000000 -1.000000
v -1.000000 1.000000 -1.000000
v 0.476812 8.235608 0.476812
v -0.476812 8.235608 0.476812
v 0.476812 8.235608 -0.476812
v -0.476812 8.235608 -0.476812
v 0.609067 8.235608 0.609067
v -0.609067 8.235608 0.609067
v 0.609067 8.235608 -0.609067
v -0.609067 8.235608 -0.609067
v 0.476812 10.465059 1.456175
v -0.476812 10.465059 1.456175
v 0.476812 10.465059 -1.456175
v -0.476812 10.465059 -1.456175
v 0.476812 10.894670 2.002257
v -0.476812 10.894670 2.002257
v 0.476812 10.894670 -2.002257
v -0.476812 10.894670 -2.002257
v 0.476812 16.688992 0.185762
v -0.476812 16.688992 0.185762
v 0.476812 16.688992 -0.185762
v -0.476812 16.688992 -0.185762
vt 0.922155 0.879395
vt 0.822718 0.879395
vt 0.822718 0.439698
vt 0.922155 0.439698
vt 0.326522 0.635266
vt 0.455591 0.635266
vt 0.455591 0.788999
vt 0.326522 0.788999
vt 0.163261 0.788999
vt 0.000000 0.788999
vt 0.000000 0.635266
vt 0.163261 0.635266
vt 0.125000 0.500000
vt 0.375000 0.500000
vt 0.375000 0.750000
vt 0.125000 0.750000
vt 0.787105 0.709912
vt 0.623844 0.709912
vt 0.623844 0.556178
vt 0.787105 0.556178
vt 0.584661 0.788999
vt 0.455592 0.788999
vt 0.455591 0.635266
vt 0.584661 0.635266
vt 0.195173 0.665316
vt 0.195173 0.758950
vt 0.163261 0.788999
vt 0.163261 0.635266
vt 0.294610 0.665316
vt 0.326522 0.635266
vt 0.294610 0.758950
vt 0.326522 0.788999
vt 0.053889 0.021928
vt 0.128170 0.000000
vt 0.258896 0.141004
vt 0.032045 0.207971
vt 0.723281 0.556178
vt 0.623844 0.556178
vt 0.623844 0.000000
vt 0.723281 0.000000
vt 0.822718 0.556178
vt 0.723281 0.556178
vt 0.723281 0.000000
vt 0.822718 0.000000
vt 0.922155 0.439698
vt 0.822718 0.439698
vt 0.822718 0.000000
vt 0.922155 0.000000
vt 0.712485 0.720078
vt 0.634640 0.720078
vt 0.623844 0.709912
vt 0.723281 0.709912
vt 0.712485 0.793380
vt 0.723281 0.803546
vt 0.634640 0.793380
vt 0.623844 0.803546
vt 0.311922 0.159958
vt 0.000000 0.252038
vt 1.000000 0.500000
vt 0.922155 0.500000
vt 0.922155 0.318420
vt 1.000000 0.318420
vt 1.000000 1.000000
vt 0.922155 1.000000
vt 0.922155 0.818420
vt 1.000000 0.818420
vt 0.440092 0.635266
vt 0.365811 0.613338
vt 0.343967 0.427295
vt 0.570818 0.494262
vt 1.000000 0.766608
vt 0.922155 0.766608
vt 0.922155 0.500000
vt 1.000000 0.500000
vt 0.922155 0.266608
vt 1.000000 0.266608
vt 0.311922 0.383228
vt 0.623844 0.475307
vt 0.614988 0.635266
vt 0.614988 0.708568
vt 0.584661 0.708568
vt 0.584661 0.635266
vt 0.594905 0.000000
vt 0.623844 0.008543
vt 0.311922 0.626723
vt 0.282983 0.635266
vt 0.922155 0.000000
vt 1.000000 0.000000
vn 0.0000 0.0000 -1.0000
vn 0.0000 0.0000 1.0000
vn -1.0000 0.0000 0.0000
vn 0.0000 -1.0000 0.0000
vn 1.0000 0.0000 0.0000
vn 0.0000 1.0000 0.0000
vn 0.0000 -0.4022 0.9156
vn 0.0000 -0.4022 -0.9156
vn 0.0000 0.2991 -0.9542
vn 0.0000 -0.7859 0.6183
vn 0.0000 -0.7859 -0.6183
vn 0.0000 0.2991 0.9542
usemtl Material
s off
f 1/1/1 5/2/1 20/3/1 19/4/1
f 4/5/2 9/6/2 10/7/2 8/8/2
f 8/9/3 10/10/3 12/11/3 6/12/3
f 6/13/4 2/14/4 4/15/4 8/16/4
f 2/17/5 11/18/5 9/19/5 4/20/5
f 6/21/1 12/22/1 11/23/1 2/24/1
f 3/25/6 7/26/6 10/27/6 9/28/6
f 1/29/6 3/25/6 9/28/6 11/30/6
f 7/26/6 5/31/6 12/32/6 10/27/6
f 5/31/6 1/29/6 11/30/6 12/32/6
f 16/33/3 14/34/3 22/35/3 24/36/3
f 3/37/5 1/38/5 19/39/5 17/40/5
f 5/41/3 7/42/3 18/43/3 20/44/3
f 7/45/2 3/46/2 17/47/2 18/48/2
f 13/49/6 14/50/6 18/51/6 17/52/6
f 15/53/6 13/49/6 17/52/6 19/54/6
f 14/50/6 16/55/6 20/56/6 18/51/6
f 16/55/6 15/53/6 19/54/6 20/56/6
f 24/36/3 22/35/3 26/57/3 28/58/3
f 14/59/7 13/60/7 21/61/7 22/62/7
f 15/63/8 16/64/8 24/65/8 23/66/8
f 13/67/5 15/68/5 23/69/5 21/70/5
f 27/71/9 28/72/9 32/73/9 31/74/9
f 22/62/10 21/61/10 25/75/10 26/76/10
f 23/66/11 24/65/11 28/72/11 27/71/11
f 21/70/5 23/69/5 27/77/5 25/78/5
f 31/79/6 32/80/6 30/81/6 29/82/6
f 25/78/5 27/77/5 31/83/5 29/84/5
f 28/58/3 26/57/3 30/85/3 32/86/3
f 26/76/12 25/75/12 29/87/12 30/88/12
