# Blender v2.81 (sub 16) OBJ File: ''
# www.blender.org
mtllib Thing.mtl
o Cube
v 0.708341 1.026038 -0.531505
v 1.118598 -0.973962 -0.941762
v 0.708341 1.026038 0.647981
v 1.118598 -0.973962 1.058238
v -0.471144 1.026038 -0.531505
v -0.881402 -0.973962 -0.941762
v -0.471144 1.026038 0.647981
v -0.881402 -0.973962 1.058238
v 1.118598 1.026038 1.058238
v -0.881402 1.026038 1.058238
v 1.118598 1.026038 -0.941762
v -0.881402 1.026038 -0.941762
v 0.560974 5.337385 -0.384138
v 0.560974 5.337385 0.500614
v -0.323778 5.337385 -0.384138
v -0.323778 5.337385 0.500614
v 0.708341 5.337385 0.647981
v -0.471144 5.337385 0.647981
v 0.708341 5.337385 -0.531505
v -0.471144 5.337385 -0.531505
v 0.935254 6.536119 -0.758417
v 0.935254 6.536119 0.874893
v -0.698057 6.536119 -0.758417
v -0.698057 6.536119 0.874893
v 0.560974 7.216393 0.500614
v -0.323778 7.216393 0.500614
v 0.560974 7.216393 -0.384138
v -0.323778 7.216393 -0.384138
v 0.935254 8.598029 -0.758417
v 0.935254 8.598029 0.874893
v -0.698057 8.598029 -0.758417
v -0.698057 8.598029 0.874893
vt 0.113032 0.510716
vt 0.001953 0.512669
vt 0.001953 -0.005859
vt 0.124751 -0.003906
vt 0.516582 0.000000
vt 0.731850 -0.000000
vt 0.737710 0.237280
vt 0.510723 0.241187
vt 0.259095 0.751558
vt 0.032954 0.751558
vt 0.034907 0.516231
vt 0.253235 0.512325
vt 0.125000 0.500000
vt 0.375000 0.500000
vt 0.375000 0.750000
vt 0.125000 0.750000
vt 0.739663 0.476514
vt 0.512676 0.476514
vt 0.510723 0.241187
vt 0.737710 0.237280
vt 0.469610 0.512325
vt 0.696597 0.512325
vt 0.686831 0.755464
vt 0.475469 0.749605
vt 0.300024 0.569111
vt 0.300024 0.698678
vt 0.253235 0.743746
vt 0.255188 0.512325
vt 0.434540 0.569110
vt 0.473516 0.512325
vt 0.434540 0.698678
vt 0.481329 0.743745
vt 0.495434 0.974939
vt 0.394531 0.974939
vt 0.392578 0.750950
vt 0.485669 0.752903
vt 0.382065 0.508418
vt 0.247549 0.508418
vt 0.245596 -0.000000
vt 0.384018 0.001953
vt 0.247549 0.508418
vt 0.113032 0.508418
vt 0.251455 -0.000000
vt 0.384019 0.001953
vt 0.514629 -0.000000
vt 0.516582 0.508418
vt 0.382065 0.508418
vt 0.593524 0.990136
vt 0.492621 0.990136
vt 0.475814 0.973948
vt 0.610331 0.973948
vt 0.593524 1.087327
vt 0.610331 1.103516
vt 0.492621 1.087327
vt 0.475814 1.103516
vt 0.907629 0.240326
vt 0.739438 0.238373
vt 0.731625 -0.005517
vt 0.907629 -0.007471
vt 0.690078 0.973925
vt 0.589175 0.973925
vt 0.585269 0.754844
vt 0.692031 0.754844
vt 0.690078 0.752891
vt 0.587222 0.748984
vt 0.589175 0.563106
vt 0.690078 0.563106
vt 0.486328 0.752283
vt 0.587231 0.752283
vt 0.583325 0.971365
vt 0.494141 0.979177
vt 0.968750 0.574825
vt 0.968750 0.754245
vt 0.887344 0.713131
vt 0.887344 0.615939
vt 0.913912 0.391571
vt 0.913912 0.195786
vt 0.992116 0.240651
vt 0.992116 0.346706
vt 0.743494 0.794527
vt 0.743494 0.973948
vt 0.662088 0.932833
vt 0.662088 0.835642
vt 0.887344 0.933666
vt 0.887344 0.754245
vt 0.968750 0.795360
vt 0.968750 0.892551
vt 0.220682 0.817964
vt 0.220682 0.997385
vt 0.034408 0.997385
vt 0.034408 0.817964
vt 0.217500 0.994199
vt 0.033684 1.002011
vt 0.033684 0.757275
vt 0.221406 0.757275
vt 0.913488 0.496780
vt 0.739438 0.488968
vt 0.735531 0.238373
vt 0.911535 0.238373
vt 0.221406 0.757275
vt 0.393504 0.755322
vt 0.397410 0.945370
vt 0.221406 0.945370
vn -1.0000 0.0000 0.0000
vn 0.0000 0.0000 1.0000
vn 0.0000 -1.0000 0.0000
vn 1.0000 0.0000 0.0000
vn 0.0000 0.0000 -1.0000
vn 0.0000 1.0000 0.0000
vn 0.0000 -0.4820 -0.8761
vn -0.8761 -0.4820 0.0000
vn 0.8761 -0.4820 0.0000
vn 0.0000 -0.4820 0.8761
usemtl Material.001
s off
f 5/1/1 7/2/1 18/3/1 20/4/1
f 4/5/2 9/6/2 10/7/2 8/8/2
f 8/9/1 10/10/1 12/11/1 6/12/1
f 6/13/3 2/14/3 4/15/3 8/16/3
f 2/17/4 11/18/4 9/19/4 4/20/4
f 6/21/5 12/22/5 11/23/5 2/24/5
f 3/25/6 7/26/6 10/27/6 9/28/6
f 1/29/6 3/25/6 9/28/6 11/30/6
f 7/26/6 5/31/6 12/32/6 10/27/6
f 5/31/6 1/29/6 11/30/6 12/32/6
f 15/33/1 16/34/1 26/35/1 28/36/1
f 7/37/2 3/38/2 17/39/2 18/40/2
f 1/41/5 5/42/5 20/4/5 19/43/5
f 3/44/4 1/45/4 19/46/4 17/47/4
f 14/48/6 16/49/6 18/50/6 17/51/6
f 13/52/6 14/48/6 17/51/6 19/53/6
f 16/49/6 15/54/6 20/55/6 18/50/6
f 15/54/6 13/52/6 19/53/6 20/55/6
f 23/56/1 24/57/1 32/58/1 31/59/1
f 16/60/2 14/61/2 25/62/2 26/63/2
f 13/64/5 15/65/5 28/66/5 27/67/5
f 14/68/4 13/69/4 27/70/4 25/71/4
f 22/72/7 24/73/7 26/74/7 25/75/7
f 21/76/8 22/77/8 25/78/8 27/79/8
f 24/80/9 23/81/9 28/82/9 26/83/9
f 23/84/10 21/85/10 27/86/10 28/87/10
f 29/88/6 31/89/6 32/90/6 30/91/6
f 24/92/2 22/93/2 30/94/2 32/95/2
f 21/96/5 23/97/5 31/98/5 29/99/5
f 22/100/4 21/101/4 29/102/4 30/103/4
